<?xml version="1.0" encoding="utf-8"?>
<!-- Generator: Adobe Illustrator 26.0.0, SVG Export Plug-In . SVG Version: 6.00 Build 0)  -->
<svg version="1.1" id="Layer_1" xmlns="http://www.w3.org/2000/svg" xmlns:xlink="http://www.w3.org/1999/xlink" x="0px" y="0px"
	 viewBox="0 0 243 64.8" style="enable-background:new 0 0 243 64.8;" xml:space="preserve">
<style type="text/css">
	.st0{fill:#8CD0E0;}
	.st1{fill:#002E5F;}
	.st2{fill:#5061AA;}
	.st3{fill:#8B328A;}
	.st4{fill:#5D80C0;}
	.st5{fill:#E94E29;}
	.st6{fill:#D5262A;}
	.st7{fill:#F6A022;}
	.st8{fill:#6A95CD;}
	.st9{fill:#306FB6;}
	.st10{fill:#73C8DD;}
	.st11{fill:#92C143;}
	.st12{fill:#169BD6;}
	.st13{fill:#199AA6;}
	.st14{fill:#A5BFDF;}
	.st15{fill:#3FB7AF;}
	.st16{fill:#AE2258;}
	.st17{fill:#79C199;}
	.st18{fill:#E5DF1F;}
	.st19{fill:#33BACF;}
	.st20{fill:#6CA9DB;}
	.st21{fill:#DE5097;}
	.st22{fill:#604596;}
	.st23{fill:#FAD803;}
	.st24{fill:#0BB8E7;}
	.st25{fill:#41AD4C;}
	.st26{fill:#E7B720;}
	.st27{fill:#B9CF37;}
</style>
<g id="layer1">
	<g id="layer1-4">
		<path id="path4297" class="st0" d="M142.4,21.7h-13.7v22.4c0,7.4-4.5,9.4-7.5,9.4c-4.4,0-6.8-1.9-6.8-7.5V21.7h-13.7v25.2
			c0,11,3.5,17.9,15.5,17.9c5.1,0,9.9-2.6,12.8-6.9h0.2v5.7h13.3L142.4,21.7z"/>
		<path id="path4299" class="st1" d="M145.6,63.6h13.7V6h-13.7V63.6z M59.4,63.6h39.9V53.1H76.8l20.9-21V21.7H61v10.5h19.2
			L59.4,52.9V63.6L59.4,63.6z M0,63.6h15.4L19,53.3h20.1l3.6,10.3h15.7L36.8,6H21.6L0,63.6L0,63.6z M29.1,22h0.2l6.4,20.2H22.5
			L29.1,22z"/>
		<path id="path4301" class="st2" d="M218.9,6h3.8v3h-3.8V6z"/>
		<path id="path4303" class="st3" d="M205.1,37.7h11.5V50h-11.5V37.7z"/>
		<path id="path4305" class="st4" d="M212.6,52.5h7.6v4.6h-7.6V52.5z"/>
		<path id="path4307" class="st5" d="M208.1,54.7h9.1v9h-9.1V54.7z"/>
		<path id="path4309" class="st6" d="M219.4,46.5h7.8v3.4h-7.8V46.5z"/>
		<path id="path4311" class="st7" d="M216.5,40.3h8v2h-8V40.3z"/>
		<path id="path4313" class="st8" d="M227.1,46.5h5.6V48h-5.6V46.5z"/>
		<path id="path4315" class="st9" d="M216.5,30.6h7.6v9.8h-7.6V30.6z"/>
		<path id="path4317" class="st10" d="M201.7,23.1h14.9v14.6h-14.9V23.1z"/>
		<path id="path4319" class="st11" d="M193,23.1h9.9v8.1H193V23.1z"/>
		<path id="path4321" class="st2" d="M205.9,9.4h16.8v13.8h-16.8V9.4z"/>
		<path id="path4323" class="st12" d="M224.1,24.9h12.3v15h-12.3V24.9z"/>
		<path id="path4325" class="st7" d="M222.2,33.4h10.5v13.2h-10.5V33.4z"/>
		<path id="path4327" class="st6" d="M216.5,42.3h7.8v7.6h-7.8V42.3z"/>
		<path id="path4329" class="st13" d="M212,47.1h10v5.5h-10V47.1z"/>
		<path id="path4331" class="st14" d="M232.7,38.5h2.1v6.6h-2.1V38.5z"/>
		<path id="path4333" class="st15" d="M236.4,24.4h5.6v3.5h-5.6V24.4z"/>
		<path id="path4335" class="st16" d="M235.9,27.9h4v2.3h-4V27.9z"/>
		<path id="path4337" class="st17" d="M216.5,17.2h7.6v13.4h-7.6V17.2z"/>
		<path id="path4339" class="st18" d="M224.1,11.9h10.2v13h-10.2V11.9z"/>
		<path id="path4341" class="st19" d="M222.7,9.4h7.5v12.2h-7.5V9.4z"/>
		<path id="path4343" class="st20" d="M232.8,21.3H243v3.6h-10.2V21.3z"/>
		<path id="path4345" class="st21" d="M234.4,13.4h4.9v7.9h-4.9V13.4z"/>
		<path id="path4347" class="st22" d="M237.8,15.9h4.5v3.3h-4.5V15.9z"/>
		<path id="path4349" class="st23" d="M236.6,19.2h6.4v3.3h-6.4V19.2z"/>
		<path id="path4351" class="st2" d="M218.9,5.9h3.8V9h-3.8V5.9z M205.9,5.9h6.9v7.7h-6.9V5.9z"/>
		<path id="path4353" class="st24" d="M184.4,5.9h21.5v17.3h-21.5V5.9z"/>
		<path id="path4355" class="st25" d="M195.5,0h7.5v9.7h-7.5V0z"/>
		<path id="path4357" class="st26" d="M179.9,21.7h13.9v5.4h-13.9V21.7z"/>
		<path id="path4359" class="st27" d="M212.8,0.9h5.4v8.6h-5.4V0.9z"/>
		<path id="path4361" class="st11" d="M220,33.4h2.2v2.2H220V33.4z"/>
	</g>
</g>
</svg>
