<svg width="187" height="44" viewBox="0 0 187 44" fill="none" xmlns="http://www.w3.org/2000/svg">
<path d="M20.6505 3.64299L12.0379 7.17794C11.812 7.26585 11.6185 7.42093 11.4835 7.62227C11.3485 7.82361 11.2785 8.06152 11.2829 8.30389V17.9508L18.0975 15.2145C19.1606 14.8086 20.0726 14.0849 20.7095 13.1419C21.3464 12.1989 21.677 11.0825 21.6565 9.9448V4.32816C21.6663 4.20494 21.6434 4.0813 21.5901 3.9698C21.5367 3.85829 21.4547 3.7629 21.3526 3.69331C21.2504 3.62372 21.1316 3.58241 21.0083 3.57357C20.885 3.56473 20.7616 3.58868 20.6505 3.64299Z" fill="#008C3C"/>
<path d="M0.8202 23.0225V28.218C0.8202 35.2988 5.95024 40.4267 13.0398 40.4267H20.7185C20.844 40.4309 20.969 40.4093 21.0859 40.3632C21.2027 40.3172 21.3088 40.2476 21.3976 40.1588C21.4864 40.07 21.556 39.9639 21.6021 39.847C21.6482 39.7302 21.6697 39.6052 21.6655 39.4796V30.9499C21.6697 30.8243 21.6481 30.6992 21.6021 30.5822C21.556 30.4653 21.4865 30.3591 21.3977 30.2701C21.3089 30.1811 21.2028 30.1113 21.086 30.065C20.9692 30.0186 20.8441 29.9968 20.7185 30.0007H12.8652C12.6554 30.0084 12.4463 29.9727 12.2509 29.8959C12.0555 29.8191 11.878 29.7028 11.7296 29.5544C11.5811 29.4059 11.4649 29.2285 11.3881 29.0331C11.3113 28.8377 11.2756 28.6286 11.2832 28.4187V17.9448L1.57955 21.8944C1.35155 21.9803 1.15596 22.1351 1.01989 22.3373C0.883828 22.5394 0.814039 22.7789 0.8202 23.0225Z" fill="#7DDF20"/>
<path d="M63.684 12.1423C57.1225 12.1423 52.0688 17.2418 52.0688 23.6701C52.0688 30.0985 57.1225 35.1958 63.684 35.1958C70.2455 35.1958 75.2991 30.0985 75.2991 23.6701C75.2991 17.2418 70.2455 12.1423 63.684 12.1423ZM63.684 30.6746C59.7388 30.6746 56.9894 27.6197 56.9894 23.6701C56.9894 19.7206 59.7388 16.6657 63.684 16.6657C67.5855 16.6657 70.3328 19.7206 70.3328 23.6701C70.3328 27.6197 67.5855 30.6746 63.684 30.6746Z" fill="#008C3C"/>
<path d="M98.5736 28.9005L94.9382 26.9498C94.8956 26.9247 94.8479 26.9094 94.7987 26.9049C94.7495 26.9004 94.6998 26.9068 94.6534 26.9237C94.6069 26.9406 94.5647 26.9675 94.5298 27.0026C94.495 27.0376 94.4683 27.08 94.4516 27.1265C93.8954 28.2063 93.0498 29.11 92.0093 29.7366C90.9688 30.3632 89.7746 30.6879 88.56 30.6746C84.6127 30.6746 81.8196 27.6197 81.8196 23.6701C81.8196 19.7206 84.6127 16.6657 88.56 16.6657C89.7746 16.6506 90.9694 16.9744 92.0101 17.6008C93.0508 18.2271 93.8963 19.1312 94.4516 20.2116C94.4679 20.2584 94.4944 20.301 94.5293 20.3363C94.5641 20.3715 94.6063 20.3986 94.6529 20.4155C94.6995 20.4325 94.7493 20.4388 94.7986 20.4341C94.848 20.4294 94.8957 20.4137 94.9382 20.3883L98.5736 18.4375C98.6178 18.418 98.657 18.3889 98.6886 18.3523C98.7201 18.3157 98.7431 18.2725 98.7558 18.2259C98.7686 18.1793 98.7708 18.1304 98.7623 18.0829C98.7538 18.0353 98.7348 17.9902 98.7067 17.9509C96.7559 14.4029 93.0333 12.1423 88.5557 12.1423C81.9047 12.1423 76.8511 17.1087 76.8511 23.6701C76.8511 30.2316 81.9047 35.1958 88.5557 35.1958C93.0333 35.1958 96.8017 32.9352 98.7525 29.3435C98.7862 29.2609 98.7864 29.1684 98.753 29.0857C98.7195 29.003 98.6552 28.9365 98.5736 28.9005Z" fill="#008C3C"/>
<path d="M51.4937 30.319H40.1469V12.9411C40.1403 12.8489 40.1008 12.7622 40.0354 12.6969C39.9701 12.6316 39.8834 12.592 39.7913 12.5854H35.6235C35.5316 12.592 35.4452 12.6317 35.3802 12.6971C35.3152 12.7624 35.2761 12.8491 35.27 12.9411V30.6747C35.27 33.2016 36.8215 34.753 39.3483 34.753H51.4937C51.5858 34.7468 51.6724 34.7073 51.7375 34.6418C51.8026 34.5764 51.8415 34.4894 51.8472 34.3973V30.6747C51.8415 30.5826 51.8026 30.4957 51.7375 30.4302C51.6724 30.3648 51.5858 30.3252 51.4937 30.319Z" fill="#008C3C"/>
<path d="M161.884 30.3187H150.251L161.707 16.7092C161.823 16.5729 161.886 16.3993 161.884 16.2204V12.9473C161.878 12.855 161.838 12.768 161.773 12.7026C161.707 12.6372 161.62 12.5978 161.528 12.5916H144.508C144.416 12.5978 144.329 12.6372 144.263 12.7026C144.198 12.768 144.158 12.855 144.152 12.9473V16.6721C144.159 16.7642 144.198 16.8508 144.264 16.9159C144.329 16.981 144.416 17.0199 144.508 17.0256H155.578L144.152 30.681C144.037 30.817 143.975 30.9895 143.976 31.1676V34.397C143.981 34.4891 144.02 34.576 144.085 34.6415C144.15 34.707 144.237 34.7465 144.329 34.7527H161.886C161.978 34.7465 162.065 34.707 162.13 34.6415C162.195 34.576 162.234 34.4891 162.24 34.397V30.6744C162.234 30.5819 162.195 30.4947 162.129 30.4292C162.064 30.3637 161.976 30.3244 161.884 30.3187Z" fill="#008C3C"/>
<path d="M140.338 4.65137H136.17C136.079 4.6575 135.992 4.69671 135.927 4.76172C135.862 4.82673 135.823 4.91313 135.817 5.00486V9.26207C135.823 9.3538 135.862 9.4402 135.927 9.50521C135.992 9.57022 136.079 9.60943 136.17 9.61557H137.765C138.153 9.628 138.539 9.56081 138.9 9.41816C139.26 9.27551 139.588 9.06042 139.862 8.78618C140.136 8.51194 140.352 8.18439 140.494 7.82375C140.637 7.46311 140.704 7.07705 140.692 6.68942V5.00486C140.685 4.91313 140.646 4.82673 140.581 4.76172C140.516 4.69671 140.43 4.6575 140.338 4.65137Z" fill="#008C3C"/>
<path d="M185.823 12.5852H181.655C181.563 12.5919 181.477 12.6315 181.412 12.6969C181.347 12.7623 181.308 12.8489 181.302 12.9409V15.5747C180.062 13.7876 177.415 12.1423 174.208 12.1423C168.135 12.1423 163.516 17.3291 163.516 23.6701C163.516 30.0112 168.126 35.1958 174.208 35.1958C177.415 35.1958 180.062 33.5527 181.302 31.7656V34.3972C181.307 34.4893 181.346 34.5762 181.411 34.6417C181.476 34.7071 181.563 34.7467 181.655 34.7528H185.823C185.915 34.7467 186.002 34.7073 186.068 34.6418C186.133 34.5764 186.172 34.4895 186.179 34.3972V12.9409C186.172 12.8488 186.132 12.7621 186.067 12.6967C186.002 12.6314 185.915 12.5918 185.823 12.5852ZM175.094 30.7619C171.194 30.7619 168.489 27.659 168.489 23.6701C168.489 19.6813 171.194 16.5762 175.094 16.5762C178.993 16.5762 181.701 19.6791 181.701 23.6701C181.701 27.6611 178.995 30.7619 175.094 30.7619Z" fill="#008C3C"/>
<path d="M122.302 12.5852H118.135C118.043 12.5919 117.956 12.6315 117.891 12.6969C117.826 12.7623 117.787 12.8489 117.781 12.9409V15.5747C116.54 13.7876 113.893 12.1423 110.687 12.1423C104.612 12.1423 99.9951 17.3291 99.9951 23.6701C99.9951 30.0112 104.606 35.1958 110.687 35.1958C113.893 35.1958 116.54 33.5527 117.781 31.7656V34.3972C117.787 34.4893 117.826 34.5762 117.891 34.6417C117.956 34.7071 118.043 34.7467 118.135 34.7528H122.302C122.394 34.7467 122.481 34.7071 122.546 34.6417C122.611 34.5762 122.65 34.4893 122.656 34.3972V12.9409C122.65 12.8489 122.611 12.7623 122.546 12.6969C122.481 12.6315 122.394 12.5919 122.302 12.5852ZM111.573 30.7619C107.672 30.7619 104.968 27.659 104.968 23.6701C104.968 19.6813 107.672 16.5762 111.573 16.5762C115.475 16.5762 118.178 19.6791 118.178 23.6701C118.178 27.6611 115.466 30.7619 111.564 30.7619H111.573Z" fill="#008C3C"/>
<path d="M140.338 12.5854H136.173C135.976 12.5854 135.817 12.7446 135.817 12.9411V34.3951C135.817 34.5916 135.976 34.7508 136.173 34.7508H140.338C140.535 34.7508 140.694 34.5916 140.694 34.3951V12.9411C140.694 12.7446 140.535 12.5854 140.338 12.5854Z" fill="#008C3C"/>
<path d="M131.334 4.65137H127.169C126.972 4.65137 126.813 4.8106 126.813 5.00704V34.3973C126.813 34.5937 126.972 34.753 127.169 34.753H131.334C131.531 34.753 131.69 34.5937 131.69 34.3973V5.00704C131.69 4.8106 131.531 4.65137 131.334 4.65137Z" fill="#008C3C"/>
</svg>
